<?xml version="1.0" standalone="no"?>
<!DOCTYPE svg PUBLIC "-//W3C//DTD SVG 20010904//EN"
 "http://www.w3.org/TR/2001/REC-SVG-20010904/DTD/svg10.dtd">
<svg version="1.0" xmlns="http://www.w3.org/2000/svg"
 width="155.000000pt" height="155.000000pt" viewBox="0 0 155.000000 155.000000"
 preserveAspectRatio="xMidYMid meet">
<metadata>
Created by potrace 1.11, written by Peter Selinger 2001-2013
</metadata>
<g transform="translate(0.000000,155.000000) scale(0.100000,-0.100000)"
fill="#000000" stroke="none">
<path d="M558 1308 c-2 -7 -4 -40 -4 -73 l1 -60 53 -3 52 -3 0 75 0 76 -49 0
c-30 0 -50 -5 -53 -12z"/>
<path d="M810 1187 c-61 -22 -58 -20 -123 -78 -35 -31 -58 -43 -85 -45 -138
-9 -244 -78 -294 -191 -29 -66 -29 -172 1 -234 39 -82 129 -156 216 -178 39
-10 151 -6 190 7 25 8 77 12 140 10 l100 -3 -27 -24 c-16 -14 -28 -27 -28 -31
0 -7 48 -59 72 -78 15 -12 22 -9 53 19 l35 33 -37 38 c-20 21 -35 40 -32 42 3
3 83 6 179 6 155 2 179 4 215 22 83 43 135 124 135 212 0 83 -79 184 -162 207
-24 6 -48 13 -55 14 -6 2 -14 17 -18 34 -19 87 -126 190 -232 225 -67 22 -173
19 -243 -7z"/>
<path d="M192 1157 c-18 -18 -32 -37 -31 -42 0 -6 20 -27 44 -48 l44 -38 30
32 c17 18 31 37 30 43 0 6 -20 28 -43 48 l-43 37 -31 -32z"/>
<path d="M1542 1160 c0 -19 2 -27 5 -17 2 9 2 25 0 35 -3 9 -5 1 -5 -18z"/>
<path d="M1543 895 c0 -27 2 -38 4 -22 2 15 2 37 0 50 -2 12 -4 0 -4 -28z"/>
<path d="M15 802 c-11 -11 -5 -90 8 -94 6 -2 41 -4 77 -4 l65 1 3 51 3 51 -75
0 c-42 0 -78 -2 -81 -5z"/>
<path d="M192 437 l-42 -42 36 -30 c20 -17 41 -29 46 -27 15 4 78 68 78 79 0
12 -53 63 -66 63 -5 0 -29 -19 -52 -43z"/>
<path d="M557 336 c-1 -6 -3 -38 -2 -71 l0 -60 53 -3 52 -3 0 74 0 75 -50 -1
c-27 0 -51 -5 -53 -11z"/>
</g>
</svg>
